<!--?xml version="1.0" standalone="no"?-->
              <svg id="sw-js-blob-svg" viewBox="0 0 100 100" xmlns="http://www.w3.org/2000/svg" version="1.1">
                    <defs> 
                        <linearGradient id="sw-gradient" x1="0" x2="1" y1="1" y2="0">
                            <stop id="stop1" stop-color="rgba(248, 117, 55, 1)" offset="0%"></stop>
                            <stop id="stop2" stop-color="rgba(251, 168, 31, 1)" offset="100%"></stop>
                        </linearGradient>
                    </defs>
                <path fill="url(#sw-gradient)" d="M18.8,-31.5C25.1,-29,31.2,-25.3,35,-19.9C38.8,-14.4,40.1,-7.2,40.3,0.1C40.5,7.4,39.5,14.8,36.1,20.9C32.7,27.1,27,31.9,20.6,34.8C14.1,37.7,7.1,38.6,0.5,37.8C-6.1,36.9,-12.2,34.4,-18.8,31.5C-25.3,28.7,-32.2,25.7,-33.9,20.4C-35.7,15.1,-32.2,7.5,-30.8,0.8C-29.5,-6,-30.3,-12,-28.3,-16.7C-26.3,-21.5,-21.4,-25,-16.2,-28.1C-11,-31.2,-5.5,-33.9,0.4,-34.6C6.3,-35.3,12.6,-34,18.8,-31.5Z" width="100%" height="100%" transform="translate(50 50)" style="transition: all 0.3s ease 0s;" stroke-width="0" stroke="url(#sw-gradient)"></path>
              </svg>