<!--?xml version="1.0" standalone="no"?-->
              <svg id="sw-js-blob-svg" viewBox="0 0 100 100" xmlns="http://www.w3.org/2000/svg" version="1.1">
                    <defs> 
                        <linearGradient id="sw-gradient" x1="0" x2="1" y1="1" y2="0">
                            <stop id="stop1" stop-color="rgba(164.945, 255, 65.586, 1)" offset="0%"></stop>
                            <stop id="stop2" stop-color="rgba(7.931, 7.769, 7.503, 1)" offset="100%"></stop>
                        </linearGradient>
                    </defs>
                <path fill="url(#sw-gradient)" d="M17.2,-21.1C24,-14.8,32.3,-11,35.9,-4.3C39.4,2.3,38.2,11.8,32.5,16C26.8,20.1,16.6,18.9,8.3,21.1C0,23.4,-6.3,29.2,-12.2,29C-18.1,28.9,-23.5,22.8,-27.8,15.8C-32.2,8.8,-35.5,1,-34.7,-6.5C-33.8,-14,-28.8,-21.2,-22.3,-27.6C-15.9,-33.9,-7.9,-39.5,-1.4,-37.9C5.2,-36.3,10.4,-27.5,17.2,-21.1Z" width="100%" height="100%" transform="translate(50 50)" style="transition: all 0.3s ease 0s;" stroke-width="0" stroke="url(#sw-gradient)"></path>
              </svg>